<svg xmlns="http://www.w3.org/2000/svg" width="439" height="47" viewBox="0 0 439 47"><g fill="none" fill-rule="evenodd"><path fill="#9B9B9B" d="M283.39 38h2.05v-7.38h1.95v-1.643h-1.975v-.73c0-.84.415-1.204 1.27-1.204.307 0 .614.033.79.066v-1.54c-.358-.06-.632-.1-1.04-.1-2 0-3.045.76-3.045 2.61v.88h-1.486v1.64h1.486V38zm9.902.183c-2.722 0-4.366-1.777-4.366-4.724 0-2.93 1.67-4.73 4.366-4.73 2.707 0 4.367 1.78 4.367 4.72 0 2.94-1.66 4.72-4.37 4.72zm0-1.727c1.437 0 2.25-1.096 2.25-2.997 0-1.9-.822-3-2.25-3-1.436 0-2.257 1.1-2.257 2.99 0 1.9.82 2.99 2.257 2.99zM299.734 38h2.058v-5.246c0-1.27.93-2.1 2.267-2.1.34 0 .89.058 1.05.116v-1.91c-.19-.057-.56-.09-.86-.09-1.17 0-2.15.664-2.4 1.56h-.14v-1.41h-1.99V38z"/><g fill="#217BB9" fill-rule="nonzero"><path d="M71.537 37.617h-4.67V13.03h-8.412V9.02H79.94v4.01h-8.41m22.278 2.563c.767-.014 1.534.05 2.288.196l-.45 4.28c-.665-.16-1.347-.24-2.03-.24-1.84 0-3.326.6-4.46 1.8-1.132 1.2-1.703 2.76-1.71 4.67v11.3h-4.61V15.98h3.6l.593 3.814h.23c.67-1.24 1.63-2.295 2.8-3.073 1.1-.74 2.4-1.13 3.74-1.13zm18.822 22.024l-.917-3.01h-.158c-1.044 1.317-2.093 2.21-3.147 2.675-1.054.465-2.41.703-4.068.713-2.126 0-3.785-.574-4.978-1.72-1.193-1.148-1.787-2.772-1.783-4.873 0-2.23.82-3.913 2.48-5.053 1.65-1.14 4.18-1.76 7.57-1.86l3.73-.12v-1.15c0-1.39-.33-2.42-.97-3.1-.65-.68-1.65-1.03-3-1.03-1.09.01-2.16.18-3.19.52-1 .32-1.98.7-2.93 1.15l-1.48-3.29c1.22-.63 2.52-1.1 3.86-1.4 1.28-.31 2.6-.48 3.92-.49 2.75 0 4.83.6 6.24 1.79 1.41 1.2 2.11 3.08 2.1 5.65V37.6l-3.29.015zm-6.834-3.138c1.668 0 3.008-.47 4.018-1.4 1.01-.94 1.516-2.24 1.516-3.93v-1.87l-2.776.12c-2.164.07-3.738.43-4.722 1.08-.985.64-1.48 1.63-1.486 2.97 0 .96.287 1.71.862 2.24.574.53 1.437.79 2.588.78zm34.568 3.13h-4.615v-13.3c0-1.67-.34-2.92-1.01-3.74-.67-.83-1.74-1.24-3.2-1.24-1.95 0-3.37.57-4.27 1.72-.9 1.15-1.35 3.07-1.35 5.77V37.6h-4.6V15.98h3.6l.64 2.837h.23c.67-1.044 1.64-1.87 2.77-2.376 1.25-.57 2.61-.86 3.99-.84 5.19 0 7.78 2.64 7.78 7.92v14.1zm19.926-6.16c0 2.11-.77 3.73-2.31 4.86-1.538 1.12-3.742 1.69-6.608 1.69-2.88 0-5.195-.44-6.942-1.31v-3.97c2.54 1.17 4.907 1.75 7.096 1.75 2.83 0 4.244-.85 4.244-2.56.017-.5-.15-.99-.47-1.37-.445-.47-.968-.85-1.545-1.14-.97-.51-1.97-.95-2.993-1.33-2.49-.97-4.174-1.93-5.052-2.9-.877-.97-1.317-2.22-1.32-3.76-.062-1.73.79-3.37 2.242-4.31 1.49-1.03 3.522-1.54 6.092-1.54 2.488-.01 4.95.51 7.215 1.54l-1.49 3.46c-2.34-.97-4.3-1.45-5.89-1.45-2.43 0-3.64.7-3.64 2.08 0 .7.36 1.34.94 1.72.63.47 2.01 1.12 4.13 1.94 1.78.69 3.08 1.33 3.89 1.9.75.51 1.36 1.19 1.8 1.98.41.83.61 1.76.58 2.69zm8.562 6.16h-4.598V7.18h4.595m19.1 30.437l-.92-3.01h-.16c-1.05 1.317-2.1 2.21-3.15 2.675-1.06.465-2.41.703-4.07.713-2.13 0-3.79-.574-4.98-1.72-1.19-1.148-1.79-2.772-1.79-4.873 0-2.23.83-3.913 2.48-5.053 1.65-1.14 4.18-1.76 7.57-1.86l3.73-.12v-1.15c0-1.39-.32-2.42-.97-3.1-.65-.68-1.65-1.03-3.01-1.03-1.09.01-2.16.18-3.19.52-1 .32-1.98.7-2.94 1.15l-1.49-3.29c1.22-.63 2.52-1.1 3.86-1.4 1.29-.31 2.62-.47 3.95-.48 2.75 0 4.83.6 6.24 1.8 1.41 1.2 2.11 3.08 2.1 5.64V37.6l-3.31.003zm-6.84-3.13c1.66 0 3-.466 4.01-1.4 1.01-.933 1.51-2.24 1.51-3.92V27.29l-2.78.118c-2.17.077-3.74.44-4.72 1.085-.99.645-1.48 1.636-1.49 2.972 0 .965.28 1.712.86 2.24.57.53 1.43.788 2.58.774h.01zm23.59-.197c1.14-.002 2.27-.18 3.36-.528v3.463c-.64.258-1.29.446-1.97.56-.83.15-1.66.227-2.5.225-4.36 0-6.54-2.296-6.54-6.887V19.466h-2.95v-2.033l3.17-1.68 1.56-4.577h2.83v4.81h6.16v3.48h-6.15v11.592c0 1.107.27 1.926.83 2.455.59.537 1.38.817 2.18.778zm16.13 3.72c-3.37 0-6-.98-7.89-2.943-1.89-1.96-2.84-4.664-2.85-8.108 0-3.54.88-6.31 2.64-8.33 1.76-2.02 4.18-3.03 7.25-3.03 2.85 0 5.11.86 6.76 2.6 1.65 1.73 2.48 4.12 2.48 7.16v2.48h-14.41c.06 2.1.63 3.71 1.7 4.84 1.07 1.13 2.57 1.69 4.51 1.69 1.2 0 2.39-.12 3.56-.37 1.22-.28 2.4-.68 3.54-1.19v3.73c-1.08.52-2.227.9-3.4 1.13-1.3.23-2.61.33-3.93.31zM220 19.076c-1.46 0-2.63.463-3.51 1.388-.88.926-1.405 2.275-1.575 4.05h9.807c-.026-1.785-.456-3.138-1.29-4.062-.834-.923-1.978-1.382-3.433-1.376zm11.485 17.32c-.026-.4.107-.793.372-1.094.29-.27.68-.408 1.076-.38.4-.03.795.115 1.084.395.26.298.394.687.372 1.082.02.4-.12.79-.38 1.1-.62.53-1.54.53-2.16 0-.26-.31-.4-.71-.37-1.11zm9.71 1.418c-1.637 0-2.88-.478-3.73-1.433-.85-.95-1.275-2.32-1.275-4.11 0-1.82.445-3.22 1.334-4.19.89-.97 2.177-1.46 3.863-1.46 1.062-.01 2.114.2 3.082.64l-.7 1.85c-.76-.33-1.58-.52-2.41-.57-1.87 0-2.81 1.25-2.81 3.73 0 1.21.23 2.13.7 2.74.49.63 1.25.97 2.04.92 1.01 0 2.01-.26 2.9-.76v2.01c-.41.24-.86.42-1.32.52-.56.12-1.13.17-1.71.16zm14.645-5.624c0 1.768-.453 3.147-1.36 4.138-.904.99-2.165 1.486-3.782 1.486-.937.018-1.86-.218-2.675-.684-.777-.462-1.398-1.146-1.783-1.965-.434-.93-.648-1.946-.627-2.972 0-1.754.45-3.123 1.35-4.108.9-.985 2.167-1.48 3.803-1.486 1.566 0 2.804.5 3.715 1.51.92 1 1.37 2.36 1.36 4.08zm-7.873 0c0 2.497.922 3.745 2.767 3.745 1.844 0 2.757-1.248 2.737-3.745 0-2.47-.91-3.706-2.75-3.706-.96 0-1.66.32-2.1.957-.43.64-.65 1.56-.65 2.75zm19.127 5.427h-2.307v-6.67c0-.828-.156-1.446-.47-1.854-.36-.43-.908-.658-1.467-.612-.888 0-1.538.29-1.95.87-.412.58-.62 1.54-.62 2.88v5.39h-2.298V26.8h1.798l.324 1.42h.116c.305-.52.76-.934 1.304-1.19.586-.284 1.23-.43 1.882-.422 1.662 0 2.763.568 3.304 1.703h.158c.32-.53.79-.97 1.35-1.25.618-.31 1.302-.46 1.993-.45 1.3 0 2.24.33 2.82.98.59.65.89 1.65.9 2.97v7.06h-2.3v-6.67c0-.83-.16-1.44-.47-1.85-.36-.43-.92-.66-1.48-.61-.89 0-1.54.28-1.96.84-.41.56-.62 1.42-.62 2.57l.02 5.74z"/><path d="M23.424.232C10.644.232.282 10.594.282 23.377s10.36 23.146 23.142 23.146c12.78 0 23.14-10.363 23.14-23.146 0-12.783-10.36-23.145-23.14-23.145zM43.6 15.417h-6C36.446 9.37 33.908 5.57 31.92 3.412c5.337 2.288 9.54 6.61 11.682 12.008l-.003-.003zm-6.78 6.926c.01 2.53-.217 5.056-.677 7.544H24.15v-13.02h12.266c.275 1.813.41 3.643.405 5.476zm-8.344 22.132c-1.42.343-2.87.543-4.33.594V31.33h11.697C33.73 40.4 28.89 44.168 28.48 44.472h-.004zm-9.352.02c-.02 0-2.116-1.486-4.185-4.95-1.5-2.555-2.58-5.326-3.22-8.214H22.7v13.73c-1.143-.03-2.282-.16-3.405-.38-.046-.07-.103-.13-.17-.18h-.002zM10.75 22.343c-.006-1.832.115-3.663.362-5.478h11.59v13.02H11.427c-.46-2.49-.686-5.013-.678-7.542zM18.02 2.36c1.532-.39 3.102-.614 4.682-.663V15.42H11.346c1.59-8.76 5.89-12.448 6.675-13.06zm6.126 13.06V1.697c1.463.05 2.916.25 4.34.595.067.04 5.705 3.507 7.663 13.134l-12.01-.006zm-9.15-12.035C13.213 5.53 10.942 9.33 9.902 15.42H3.248C5.398 10 9.628 5.665 14.996 3.385zM2.73 16.868h6.955c-.23 1.817-.344 3.646-.34 5.478-.01 2.528.204 5.052.637 7.543H2.728c-1.332-4.24-1.332-8.79 0-13.02l.003-.01zm.518 14.466h7.02c1.438 6.54 4.24 10.52 6.136 12.57-6.007-2.072-10.812-6.662-13.156-12.57zm28.286 12.163c1.875-2.15 4.425-6.025 5.77-12.163h6.298c-2.195 5.53-6.555 9.925-12.068 12.163zm12.588-13.61h-6.538c.435-2.49.648-5.016.64-7.544.005-1.833-.123-3.664-.38-5.478h6.27c1.332 4.237 1.332 8.78 0 13.02l.008.002z" opacity=".2"/><path d="M21.397 31.316H17.77v-12.78h-6.52v-3.1h16.67v3.11h-6.523"/><path d="M36.12 22.616h-2.27c.327.113.416.14.502.176-.04.09-.14.124-.315.124-.62 1.884-1.662 3.602-3.044 5.024 1.527 1.25 3.33 2.118 5.26 2.532-.233.255-.433.54-.594.844-1.98-.477-3.81-1.418-5.35-2.746-1.43 1.19-3.18 2.08-5.32 2.73-.14-.272-.3-.53-.49-.766 1.88-.488 3.64-1.362 5.16-2.568-1.41-1.484-2.48-3.253-3.14-5.186l.51-.164H24.6v-.832h5.275v-2.202l1.12.074c0 .09-.09.15-.25.175v1.96h5.35l.002.83zm-8.726 0c.615 1.785 1.632 3.405 2.972 4.735 1.306-1.33 2.285-2.95 2.86-4.73h-5.832z"/></g><g fill="#9B9B9B" fill-rule="nonzero"><path d="M385.658 27.37h-5v.532c1.564 0 1.815.336 1.815 2.324v3.584c0 1.988-.25 2.352-1.815 2.352-1.2-.168-2.01-.812-3.128-2.044l-1.284-1.4c1.73-.308 2.653-1.4 2.653-2.632 0-1.54-1.32-2.715-3.78-2.715h-4.92v.54c1.56 0 1.81.34 1.81 2.33v3.59c0 1.99-.25 2.36-1.82 2.36v.53h5.56v-.53c-1.57 0-1.82-.36-1.82-2.35v-1.01h.47l3.1 3.89h8.12c3.99 0 5.72-2.13 5.72-4.67s-1.73-4.65-5.73-4.65zm-11.702 4.564V28.21h1.145c1.26 0 1.82.87 1.82 1.876 0 .98-.56 1.848-1.81 1.848h-1.14zm11.786 3.892h-.196c-1.005 0-1.145-.252-1.145-1.54V28.21h1.35c2.91 0 3.44 2.128 3.44 3.78 0 1.708-.53 3.836-3.43 3.836zm-31.085-2.856l1.928-5.712c.558-1.65.307-2.127-1.48-2.127v-.56h5.25v.56c-1.76 0-2.178.42-2.877 2.47l-3.184 9.58h-.363l-2.84-8.76-2.9 8.77h-.36l-3.1-9.57c-.67-2.04-1.11-2.46-2.73-2.46v-.56h6.2v.56c-1.65 0-2.09.39-1.51 2.13l1.87 5.71 2.82-8.4h.53l2.77 8.4zm9.496 4.088c-3.072 0-5.586-2.268-5.586-5.04 0-2.744 2.514-5.012 5.586-5.012 3.072 0 5.585 2.268 5.585 5.012 0 2.772-2.513 5.04-5.585 5.04zm0-9.183c-2.57 0-3.463 2.323-3.463 4.143 0 1.848.894 4.144 3.463 4.144 2.597 0 3.49-2.296 3.49-4.144 0-1.82-.893-4.143-3.49-4.143zm34.127 8.26v.56h-6.395v-.56c1.872 0 2.207-.477 2.207-3.277v-4.48c0-2.8-.335-3.247-2.207-3.247v-.56h5.78c2.878 0 4.47 1.49 4.47 3.48 0 1.93-1.592 3.45-4.47 3.45h-1.59v1.37c0 2.8.335 3.28 2.206 3.28zm-.614-10.557h-1.592v4.872h1.592c1.565 0 2.29-1.092 2.29-2.407 0-1.344-.725-2.465-2.29-2.465zm23.656 8.484l-.14.504c-.25.924-.56 1.26-2.542 1.26h-.39c-1.453 0-1.704-.336-1.704-2.324v-1.287c2.178 0 2.346.195 2.346 1.65h.53v-4.17h-.53c0 1.455-.168 1.65-2.346 1.65V28.21h1.536c1.983 0 2.29.338 2.54 1.26l.14.533h.448l-.195-2.63h-8.212v.53c1.564 0 1.816.336 1.816 2.324v3.584c0 1.82-.22 2.28-1.45 2.35-1.17-.18-1.98-.82-3.08-2.03l-1.29-1.4c1.73-.31 2.65-1.4 2.65-2.63 0-1.54-1.32-2.71-3.77-2.71h-4.92v.53c1.56 0 1.81.34 1.81 2.33v3.59c0 1.99-.25 2.35-1.82 2.35v.53h5.56v-.53c-1.57 0-1.82-.36-1.82-2.35v-1.01h.47l3.1 3.89h11.48l.16-2.63h-.42zm-14.802-2.128V28.21h1.145c1.257 0 1.815.87 1.815 1.876 0 .98-.558 1.848-1.815 1.848h-1.145zm20.47 5.124c-1.116 0-2.094-.588-2.512-.952-.14.14-.39.56-.447.952h-.53v-3.864h.56c.23 1.848 1.51 2.94 3.16 2.94.9 0 1.62-.504 1.62-1.344 0-.727-.64-1.288-1.79-1.82l-1.59-.755c-1.11-.533-1.95-1.457-1.95-2.69 0-1.342 1.26-2.49 2.99-2.49.92 0 1.71.336 2.18.728.14-.112.28-.42.37-.757h.53v3.304H429c-.195-1.316-.92-2.408-2.4-2.408-.783 0-1.51.448-1.51 1.15 0 .727.587 1.118 1.927 1.734l1.538.756c1.34.644 1.87 1.68 1.87 2.52 0 1.764-1.535 2.996-3.406 2.996zm8.603 0c-1.117 0-2.095-.588-2.514-.952-.14.14-.39.56-.45.952h-.53v-3.864h.56c.22 1.848 1.51 2.94 3.15 2.94.89 0 1.62-.504 1.62-1.344 0-.727-.65-1.288-1.79-1.82l-1.6-.755c-1.12-.533-1.96-1.457-1.96-2.69 0-1.342 1.25-2.49 2.99-2.49.92 0 1.7.336 2.18.728.13-.112.27-.42.36-.757h.53v3.304h-.59c-.2-1.316-.92-2.408-2.4-2.408-.79 0-1.51.448-1.51 1.15 0 .727.58 1.118 1.92 1.734l1.53.756c1.34.644 1.87 1.68 1.87 2.52 0 1.764-1.54 2.996-3.41 2.996zm-121.545-6.615c0 4.905 2.843 9.143 6.966 11.152L315.118 25.4c-.686 1.542-1.07 3.247-1.07 5.043zm20.704-.625c0-1.53-.55-2.592-1.02-3.417-.626-1.02-1.213-1.88-1.213-2.9 0-1.14.86-2.2 2.07-2.2.05 0 .1.01.16.01-2.2-2.02-5.13-3.25-8.35-3.25-4.32 0-8.12 2.22-10.33 5.59.29.01.56.02.79.02 1.29 0 3.29-.15 3.29-.15.66-.04.74.94.08 1.02 0 0-.67.08-1.42.12l4.5 13.42 2.7-8.13-1.93-5.29c-.67-.03-1.3-.11-1.3-.11-.66-.04-.59-1.06.08-1.02 0 0 2.04.16 3.26.16 1.29 0 3.29-.15 3.29-.15.66-.04.74.94.08 1.02 0 0-.67.08-1.42.12L332.54 38l1.236-4.13c.54-1.71.945-2.94.945-4.01z"/><path d="M326.625 31.527l-3.71 10.803c1.11.326 2.28.505 3.493.505 1.44 0 2.82-.25 4.104-.702-.033-.054-.063-.11-.088-.17l-3.8-10.436zm10.628-7.027c.053.393.083.817.083 1.273 0 1.257-.234 2.67-.94 4.438l-3.776 10.95c3.68-2.14 6.15-6.14 6.15-10.71 0-2.15-.55-4.18-1.513-5.94z"/><path d="M326.408 16C318.464 16 312 22.48 312 30.443c0 7.966 6.464 14.445 14.408 14.445 7.944 0 14.41-6.48 14.41-14.445C340.815 22.48 334.35 16 326.408 16zm0 28.225c-7.58 0-13.747-6.182-13.747-13.782s6.17-13.78 13.75-13.78 13.75 6.18 13.75 13.78-6.16 13.782-13.74 13.782z"/></g></g></svg>